<svg width="195" height="195" viewBox="0 0 195 195" fill="none" xmlns="http://www.w3.org/2000/svg">
<path fill-rule="evenodd" clip-rule="evenodd" d="M96.7343 31.4688C132.756 31.4688 162 60.7136 162 96.7345C162 132.757 132.756 162.002 96.7343 162.002C60.7134 162.002 31.4684 132.757 31.4684 96.7345C31.4684 60.7136 60.7134 31.4688 96.7343 31.4688ZM52.2042 113.751C53.0868 115.709 54.0988 117.595 55.2281 119.397C55.4037 119.678 56.4641 121.371 57.5733 122.799C63.6398 130.606 70.5878 134.553 74.5997 136.421C74.8785 136.55 76.5701 137.338 78.1585 137.897C86.1907 140.719 92.8575 140.579 96.7343 140.245C94.2324 140.007 87.5763 139.302 80.1835 135.276C77.8181 133.989 69.672 129.557 63.9304 119.717C62.5271 117.313 60.5604 113.609 59.3421 108.499C58.6505 105.597 57.8758 101.373 58.2898 95.9883C58.4369 94.0737 58.7204 90.8566 59.9446 86.9087C59.5828 88.5244 59.2601 90.4628 59.113 92.636C59.0988 92.8471 59.004 94.2517 59.0277 95.2802C59.068 97.0133 59.2376 100.582 60.4808 104.894C60.6659 105.535 61.7951 109.7 64.9577 114.462C65.0835 114.652 65.8902 115.866 66.6292 116.773C68.2153 118.722 72.5724 123.768 80.091 127.003C80.2902 127.09 81.5666 127.639 82.633 127.979C88.5561 129.873 93.3819 129.751 96.7343 129.367C94.9335 129.141 89.931 128.48 84.4766 125.279C82.8301 124.314 76.8548 120.881 72.837 113.476C71.8749 111.702 70.4904 108.96 69.7028 105.147C69.3113 103.249 68.7668 100.191 69.1654 96.1996C69.2982 94.8626 69.5236 92.56 70.456 89.7165C70.2164 90.8684 70.0077 92.2588 69.9271 93.8152C69.8737 94.8686 69.8962 95.6894 69.8974 95.7001C69.9555 96.9291 70.1359 99.4641 71.0944 102.504C71.162 102.717 72.0007 105.666 74.3685 109.037C74.4681 109.178 75.1265 110.116 75.684 110.748C76.8264 112.042 79.9628 115.4 85.1966 117.419C85.3472 117.477 86.3413 117.862 87.1076 118.063C91.1195 119.122 94.3653 118.903 96.7343 118.491C95.6037 118.278 92.2655 117.655 88.7696 115.284C87.8099 114.633 84.0162 112.188 81.7445 107.234C81.2154 106.08 80.4645 104.394 80.1075 102.022C79.888 100.569 79.6853 98.7452 80.0411 96.4107C80.1835 95.4747 80.3958 93.7166 81.3697 91.5375C82.0673 89.974 82.3756 89.4959 82.416 89.4259C83.1443 88.1732 83.6699 87.4805 83.7921 87.3204C84.8206 85.9633 85.161 85.6264 85.3876 85.3879C86.5205 84.1946 87.0661 83.7414 87.5892 83.3321C88.2879 82.7841 90.1065 81.2408 93.1291 80.2586C94.0366 79.9632 96.4281 79.1256 99.7639 79.275C101.941 79.3735 104.425 79.7852 107.136 81.096C108.59 81.7994 112.141 83.6168 115.01 87.8126C117.903 92.0464 118.427 96.3418 118.49 96.7345C118.556 96.2861 118.806 94.6609 118.706 92.5031C118.675 91.8387 118.552 84.8743 112.777 78.4234C112.204 77.784 109.464 74.6522 104.45 72.473C103.807 72.193 99.3665 70.1527 93.0366 70.5003C92.5538 70.5276 88.2631 70.6746 83.2131 73.1765C83.091 73.237 82.9451 73.3094 82.7779 73.396C84.4268 72.2655 87.11 70.6735 90.8064 69.6296C92.3664 69.1895 96.3262 68.0648 101.622 68.556C105.072 68.8763 108.952 69.7696 113.005 71.9559C115.466 73.2833 120.193 76.1683 124.068 81.924C128.664 88.7486 129.24 95.5565 129.367 96.7345C129.416 96.2268 129.633 94.1829 129.469 91.4853C129.367 89.8139 128.916 81.6939 122.684 73.447C122.305 72.9476 120.219 70.1871 117.297 67.7684C114.466 65.4243 111.31 63.5512 107.955 62.1882C106.698 61.6781 100.349 59.0257 91.5158 59.7279C90.3604 59.8204 84.5406 60.251 77.8002 63.741C77.6318 63.8288 77.4289 63.9344 77.1952 64.0601C79.5915 62.4777 83.3246 60.3803 88.3663 59.0327C90.7507 58.3945 96.1564 57.0445 103.232 57.8097C110.127 58.5546 115.32 60.78 118.975 62.8643C122.219 64.7125 128.619 68.8325 133.701 76.8481C139.524 86.0333 140.091 94.9172 140.246 96.7369C140.326 95.5744 140.554 92.3987 140.055 88.2492C138.288 73.5289 129.394 64.378 127.403 62.3566C125.831 60.7611 121.743 56.7587 115.013 53.4585C114.387 53.1524 110.935 51.4596 106.867 50.3706C105.778 50.08 104.289 49.7205 102.467 49.4144C103.162 49.4655 103.874 49.5319 104.599 49.6185C113.009 50.6114 119.289 53.4431 123.534 55.9235C127.394 58.181 134.781 63.0897 140.69 72.3971C147.739 83.5005 148.373 94.222 148.549 96.7345C148.614 95.668 148.792 92.668 148.441 88.7735C148.144 85.4912 147.135 76.8468 141.459 67.1657C140.669 65.8169 136.531 58.6377 128.652 52.328C121.846 46.8783 115.003 44.3693 114.041 44.0015C111.629 43.0834 102.052 39.4534 89.0128 40.7156C86.8515 40.9255 79.0624 41.7227 69.9472 46.2317C69.551 46.4275 67.2271 47.5769 65.1167 48.9198C59.3989 52.5616 55.9303 56.1975 55.2197 56.9271C51.8827 60.3565 50.0216 63.1004 49.5079 63.8454C47.0512 67.4053 45.4639 70.5157 44.223 73.4161C44.108 73.6866 43.3796 75.389 42.8873 76.8421C41.9039 79.7449 40.306 85.1246 39.9347 92.1781C39.873 93.3537 39.5029 99.6361 41.3796 107.575C41.4662 107.942 41.9834 110.13 42.6572 112.116C43.4627 114.485 45.0286 118.639 47.9385 123.376C48.1425 123.707 49.3512 125.676 50.6609 127.398C53.2054 130.747 58.8604 137.459 68.3789 142.568C68.8831 142.839 71.7385 144.371 74.8951 145.522C84.9629 149.191 93.3558 148.791 96.7343 148.549C93.3937 148.287 85.594 147.469 76.9058 142.907C73.9864 141.375 64.182 136.178 57.1309 124.482C55.6623 122.048 53.706 118.488 52.2042 113.751ZM96.7343 84.0676C89.7436 84.0676 84.0672 89.7438 84.0672 96.7345C84.0672 103.726 89.7436 109.403 96.7343 109.403C103.726 109.403 109.402 103.726 109.402 96.7345C109.402 89.7438 103.726 84.0676 96.7343 84.0676Z" fill="#00FFB1"/>
</svg>
